<svg width="652" height="770" viewBox="0 0 652 770" fill="none" xmlns="http://www.w3.org/2000/svg">
<path d="M407.335 441.37L407.348 441.382L407.335 441.37Z" fill="#3E3E3E"/>
<path d="M344.098 564.913C339.49 560.292 333.041 557.412 325.991 557.412C318.941 557.412 312.492 560.292 307.884 564.913C303.827 568.957 301.11 574.442 300.509 580.49C300.396 581.442 300.333 582.406 300.333 583.395C300.333 590.458 303.214 596.919 307.847 601.528C312.467 606.161 318.929 609.041 325.991 609.041C333.054 609.041 339.515 606.161 344.123 601.528C348.756 596.907 351.637 590.445 351.637 583.395C351.637 582.419 351.574 581.455 351.461 580.49C350.873 574.442 348.155 568.957 344.098 564.913ZM317.138 583.12C317.213 580.753 318.152 578.687 319.718 577.11C321.346 575.494 323.512 574.517 325.991 574.505C328.471 574.505 330.637 575.482 332.265 577.11C333.83 578.687 334.769 580.753 334.844 583.12C334.807 585.549 333.855 587.678 332.265 589.281C330.637 590.896 328.471 591.873 326.004 591.873C323.524 591.873 321.371 590.896 319.743 589.281C318.127 587.678 317.176 585.549 317.138 583.12Z" fill="#3E3E3E"/>
<path d="M536.3 151.583L540.495 148.44C548.847 141.54 609.529 105.552 623.354 71.8423L651.879 2.257C652.455 0.867043 650.852 -0.472783 649.575 0.341154L586.288 40.8501C555.559 60.5098 531.404 127.428 525.907 136.657L523.478 140.714L523.503 140.726L465.5 210.249C433.456 154.351 386.06 109.834 329.523 83.7384C327.294 82.7115 324.727 82.7115 322.498 83.7384C265.948 109.822 218.564 154.351 186.495 210.249L128.493 140.714L128.518 140.701L126.089 136.644C120.591 127.428 96.4237 60.4973 65.707 40.8376L2.4202 0.32862C1.15547 -0.485317 -0.447317 0.854509 0.116177 2.24446L28.6415 71.8298C42.4659 105.552 103.148 141.528 111.5 148.428L115.695 151.571L115.708 151.558L177.943 226.165C176.089 229.859 174.299 233.615 172.571 237.397C168.639 246 165.02 254.79 161.802 263.794C161.789 263.831 161.789 263.869 161.777 263.906C148.841 300.083 141.754 339.365 141.754 380.437C141.754 421.572 148.854 460.904 161.814 497.106V497.118C166.773 511.03 172.621 524.466 179.245 537.364C180.935 540.657 182.701 543.888 184.504 547.106L10.6848 755.487C7.7171 759.043 8.19291 764.327 11.7492 767.295C15.3055 770.263 20.5898 769.787 23.5575 766.231L193.583 562.396C225.376 612.785 269.98 652.943 322.51 677.199C324.739 678.225 327.306 678.225 329.535 677.199C382.053 652.943 426.669 612.797 458.438 562.408L628.463 766.231C631.431 769.787 636.715 770.263 640.271 767.295C643.828 764.327 644.303 759.043 641.336 755.487L467.516 547.106C469.307 543.888 471.073 540.657 472.763 537.364C479.387 524.491 485.235 511.043 490.194 497.143V497.131C503.154 460.929 510.254 421.56 510.254 380.425C510.254 339.327 503.179 299.983 490.231 263.781V263.769C485.611 250.796 480.176 238.249 474.065 226.14L536.3 151.533V151.583ZM173.56 479.412C163.818 448.382 158.508 415.123 158.508 380.45C158.508 345.801 163.818 312.567 173.56 281.55C198.992 306.82 214.758 341.769 214.758 380.475C214.745 419.193 198.992 454.13 173.56 479.412ZM189.676 520.647C187.484 516.026 185.443 511.331 183.465 506.585C182.125 503.354 180.823 500.086 179.583 496.793C211.439 468.217 231.525 426.681 231.525 380.487C231.525 334.293 211.427 292.757 179.57 264.169C182.638 256.043 185.994 248.066 189.676 240.29C230.285 273.498 256.181 323.925 256.181 380.487C256.181 437.037 230.285 487.464 189.676 520.647ZM326.004 660.269C272.259 634.486 227.255 590.771 197.465 535.887C243.421 499.723 272.948 443.536 272.948 380.487C272.948 317.438 243.421 261.252 197.465 225.063C227.242 170.178 272.247 126.451 326.004 100.706C379.749 126.451 424.753 170.178 454.518 225.063C408.562 261.252 379.035 317.438 379.035 380.487C379.035 443.536 408.562 499.723 454.518 535.887C424.753 590.758 379.761 634.486 326.004 660.269ZM462.32 520.647C421.71 487.464 395.815 437.037 395.815 380.475C395.815 323.912 421.71 273.486 462.332 240.277C466.026 248.041 469.37 256.017 472.437 264.144C440.556 292.745 420.458 334.281 420.471 380.475C420.471 426.669 440.569 468.205 472.413 496.805C469.345 504.932 465.989 512.896 462.32 520.647ZM478.448 281.525C488.178 312.555 493.462 345.814 493.462 380.45C493.462 415.111 488.153 448.395 478.423 479.424C452.991 454.13 437.225 419.193 437.225 380.475C437.238 341.756 453.003 306.82 478.448 281.525Z" fill="#3E3E3E"/>
<path d="M325.991 151.921C318.929 151.921 312.467 154.801 307.847 159.434C303.214 164.055 300.333 170.516 300.333 177.579C300.333 178.555 300.396 179.52 300.509 180.471C301.097 186.532 303.815 192.017 307.884 196.074C312.492 200.695 318.941 203.575 325.991 203.575C333.029 203.575 339.49 200.695 344.098 196.074C348.168 192.017 350.885 186.532 351.474 180.471C351.586 179.52 351.649 178.555 351.649 177.579C351.649 170.516 348.769 164.055 344.136 159.434C339.515 154.801 333.054 151.908 325.991 151.921ZM332.265 183.852C330.637 185.468 328.471 186.444 325.991 186.457C323.512 186.457 321.346 185.48 319.718 183.852C318.165 182.287 317.226 180.208 317.151 177.854C317.188 175.425 318.14 173.309 319.73 171.693C321.358 170.078 323.524 169.101 325.991 169.101C328.471 169.101 330.624 170.078 332.252 171.693C333.843 173.296 334.807 175.425 334.832 177.854C334.769 180.208 333.83 182.275 332.265 183.852Z" fill="#3E3E3E"/>
</svg>
