<svg width="739" height="126" viewBox="0 0 739 126" fill="none" xmlns="http://www.w3.org/2000/svg">
<path d="M0 3.00977V123.24H20.08V62.7098L59.04 119.26L97.93 62.6898V123.24H118.01V3.01978L59.04 84.4697L0 3.00977Z" fill="white"/>
<path d="M159.62 123.24H181.18L213.73 52.03L216.1 46.85L250.85 123.24H272.48L216.01 2.25L159.62 123.24Z" fill="white"/>
<path d="M306.29 123.24H327.85L362.77 46.85L397.52 123.24H419.16L362.69 2.25L306.29 123.24Z" fill="white"/>
<path d="M526.55 69.11C521.05 63.21 512.84 58.21 502.56 53.36C497.88 51.16 493.69 49.39 490.11 47.72C486.53 46.04 483.53 44.47 481.2 42.47C479.66 41.14 478.39 39.55 477.7 37.63C477.31 36.54 477.11 35.36 477.11 34.15C477.11 32.06 477.68 30.05 478.69 28.27C479.7 26.49 481.13 24.94 482.85 23.66C486.3 21.11 490.95 19.61 496.17 19.61C500.05 19.61 504.04 20.45 507.64 22.38C510.46 23.89 513.01 26.1 515 29.01L529.63 18.79C526.91 12.69 522.71 8.20999 517.32 5.10999C511.4 1.70999 504.01 0 495.78 0C487.52 0 479.95 1.93 473.76 5.37C467.56 8.81 462.74 13.74 459.86 19.82C457.94 23.88 456.87 28.46 456.87 33.54C456.87 38.22 457.77 42.06 459.28 45.37C460.8 48.67 462.95 51.46 465.58 53.94C470.83 58.9 478.01 62.52 485.08 66.02C489.4 68.17 493.97 70.41 498.19 72.81C502.42 75.21 506.31 77.76 509.31 80.64C511.31 82.56 512.94 84.65 513.9 87.04C514.45 88.4 514.76 89.86 514.76 91.37C514.77 93.56 514.09 95.67 512.89 97.45C511.7 99.24 510.02 100.72 508.01 101.9C503.99 104.26 498.61 105.51 492.33 105.52C486.59 105.52 481.42 104.44 476.92 102.08C473.17 100.12 469.94 97.27 467.25 93.61L451.15 104.93C455.04 111.35 460.17 116.34 466.51 119.84C473.5 123.69 482 125.76 491.94 125.76C501.68 125.76 510.21 123.78 517.01 120.23C523.81 116.68 528.88 111.6 531.89 105.26C533.89 101.03 534.98 96.21 534.99 90.83C534.99 86.28 534.23 82.35 532.8 78.8C531.39 75.23 529.3 72.06 526.55 69.11Z" fill="white"/>
<path d="M563.82 123.24H585.38L617.93 52.03L620.3 46.85L655.05 123.24H676.68L620.22 2.25L563.82 123.24Z" fill="white"/>
<path d="M738.38 2.66016H718.3V123.24H738.38V2.66016Z" fill="white"/>
</svg>
